<svg xmlns="http://www.w3.org/2000/svg" width="32" height="32" viewBox="0 0 120 120" fill="none">

  <g transform="rotate(-90, 60, 60)">
    <path d="M 100,60 C 100,46 88,36 76,36 C 64,36 54,44 52,56 C 54,68 64,76 76,76 C 88,76 100,74 100,60 Z"
          fill="none" stroke="#22C55E" stroke-width="3" stroke-linecap="round" stroke-linejoin="round"/>
    <line x1="100" y1="60" x2="52" y2="60" stroke="#22C55E" stroke-width="1.5" stroke-linecap="round"/>
    <path d="M 88,60 Q 84,50 78,46" fill="none" stroke="#22C55E" stroke-width="1" stroke-linecap="round"/>
    <path d="M 78,60 Q 74,70 68,73" fill="none" stroke="#22C55E" stroke-width="1" stroke-linecap="round"/>
    <path d="M 68,60 Q 64,51 60,48" fill="none" stroke="#22C55E" stroke-width="1" stroke-linecap="round"/>
    <path d="M 52,60 C 44,60 36,68 32,76" fill="none" stroke="#F97316" stroke-width="2.5" stroke-linecap="round"/>
  </g>

  <g transform="rotate(30, 60, 60)">
    <path d="M 100,60 C 100,46 88,36 76,36 C 64,36 54,44 52,56 C 54,68 64,76 76,76 C 88,76 100,74 100,60 Z"
          fill="none" stroke="#F97316" stroke-width="3" stroke-linecap="round" stroke-linejoin="round"/>
    <line x1="100" y1="60" x2="52" y2="60" stroke="#F97316" stroke-width="1.5" stroke-linecap="round"/>
    <path d="M 88,60 Q 84,50 78,46" fill="none" stroke="#F97316" stroke-width="1" stroke-linecap="round"/>
    <path d="M 78,60 Q 74,70 68,73" fill="none" stroke="#F97316" stroke-width="1" stroke-linecap="round"/>
    <path d="M 68,60 Q 64,51 60,48" fill="none" stroke="#F97316" stroke-width="1" stroke-linecap="round"/>
    <path d="M 52,60 C 44,60 36,68 32,76" fill="none" stroke="#3B82F6" stroke-width="2.5" stroke-linecap="round"/>
  </g>

  <g transform="rotate(150, 60, 60)">
    <path d="M 100,60 C 100,46 88,36 76,36 C 64,36 54,44 52,56 C 54,68 64,76 76,76 C 88,76 100,74 100,60 Z"
          fill="none" stroke="#3B82F6" stroke-width="3" stroke-linecap="round" stroke-linejoin="round"/>
    <line x1="100" y1="60" x2="52" y2="60" stroke="#3B82F6" stroke-width="1.5" stroke-linecap="round"/>
    <path d="M 88,60 Q 84,50 78,46" fill="none" stroke="#3B82F6" stroke-width="1" stroke-linecap="round"/>
    <path d="M 78,60 Q 74,70 68,73" fill="none" stroke="#3B82F6" stroke-width="1" stroke-linecap="round"/>
    <path d="M 68,60 Q 64,51 60,48" fill="none" stroke="#3B82F6" stroke-width="1" stroke-linecap="round"/>
    <path d="M 52,60 C 44,60 36,68 32,76" fill="none" stroke="#22C55E" stroke-width="2.5" stroke-linecap="round"/>
  </g>

</svg>