<svg xmlns="http://www.w3.org/2000/svg" viewBox="0 0 32 32" fill="none">
  <g transform="rotate(-90, 16, 16)">
    <path d="M27,16 C27,12 24,9 20,9 C16,9 13,12 12,15 C13,19 16,22 20,22 C24,22 27,20 27,16Z" fill="none" stroke="#22C55E" stroke-width="2" stroke-linecap="round" stroke-linejoin="round"/>
    <line x1="27" y1="16" x2="12" y2="16" stroke="#22C55E" stroke-width="1.2" stroke-linecap="round"/>
    <path d="M12,16 C9,16 7,18 6,21" fill="none" stroke="#F97316" stroke-width="1.8" stroke-linecap="round"/>
  </g>
  <g transform="rotate(30, 16, 16)">
    <path d="M27,16 C27,12 24,9 20,9 C16,9 13,12 12,15 C13,19 16,22 20,22 C24,22 27,20 27,16Z" fill="none" stroke="#F97316" stroke-width="2" stroke-linecap="round" stroke-linejoin="round"/>
    <line x1="27" y1="16" x2="12" y2="16" stroke="#F97316" stroke-width="1.2" stroke-linecap="round"/>
    <path d="M12,16 C9,16 7,18 6,21" fill="none" stroke="#3B82F6" stroke-width="1.8" stroke-linecap="round"/>
  </g>
  <g transform="rotate(150, 16, 16)">
    <path d="M27,16 C27,12 24,9 20,9 C16,9 13,12 12,15 C13,19 16,22 20,22 C24,22 27,20 27,16Z" fill="none" stroke="#3B82F6" stroke-width="2" stroke-linecap="round" stroke-linejoin="round"/>
    <line x1="27" y1="16" x2="12" y2="16" stroke="#3B82F6" stroke-width="1.2" stroke-linecap="round"/>
    <path d="M12,16 C9,16 7,18 6,21" fill="none" stroke="#22C55E" stroke-width="1.8" stroke-linecap="round"/>
  </g>
</svg>
